<?xml version="1.0" encoding="utf-8"?>
<!-- Generator: Adobe Illustrator 19.2.0, SVG Export Plug-In . SVG Version: 6.00 Build 0)  -->
<svg version="1.1"
	 id="svg2" xmlns:cc="http://creativecommons.org/ns#" xmlns:dc="http://purl.org/dc/elements/1.1/" xmlns:rdf="http://www.w3.org/1999/02/22-rdf-syntax-ns#" xmlns:svg="http://www.w3.org/2000/svg"
	 xmlns="http://www.w3.org/2000/svg" xmlns:xlink="http://www.w3.org/1999/xlink" x="0px" y="0px" viewBox="0 0 268.9 370.7"
	 style="enable-background:new 0 0 268.9 370.7;" xml:space="preserve">
<style type="text/css">
	.st0{fill:#A19E1B;}
	.st1{fill:#656565;}
</style>
<g id="g3338" transform="translate(-100.48038,-49.821977)">
	<path id="path3342" class="st0" d="M103.1,389.5v-28.6h131.7h131.7l-0.2,28.4l-0.2,28.4l-131.5,0.2l-131.5,0.2V389.5L103.1,389.5z
		 M175.5,399.4c1.4-2.2,2.6-2.4,2.6-0.6c0,2.1,3.1,2.8,4.4,1c1.5-2.1,3.5-10.5,2.8-12.2c-0.7-1.9-3.2-0.8-4,1.7l-0.6,2l-0.9-2.1
		c-1.2-2.7-4.2-2.7-5.2-0.1c-0.7,1.9-0.8,1.9-2.4-0.6c-1.4-2.2-1.9-2.4-3-1.3c-1.1,1.1-1,2.1,0.2,6.4
		C171.6,401.4,173.3,403,175.5,399.4L175.5,399.4z M197.2,399.8c0.4-1-0.4-1.9-2.5-2.8c-2.6-1.1-2.7-1.3-0.9-1.4
		c2.5,0,3.9-2.7,2-3.9c-1.1-0.7-1-1,0.3-1.8c2.7-1.6,0.9-3.7-3.1-3.7c-2.6,0-3.9,0.5-4.6,1.8c-1.3,2.5-1.2,10.7,0.2,12.1
		C190.3,401.8,196.5,401.6,197.2,399.8z M209.4,400c1.4-1,1.6-2,1-6.6c-0.7-5.7-2-7.2-6.3-7.2c-3.4,0-4.5,1.8-4.5,7.5
		c0,2.9,0.5,5.8,1.1,6.4C202.3,401.6,207.3,401.6,209.4,400z M230.3,399.2c3.1-3,3-8.4-0.3-11c-2.7-2.2-6.9-2.5-8.6-0.8
		c-1.2,1.2-1.6,12.2-0.5,13.3C222.4,402.1,228.2,401.2,230.3,399.2L230.3,399.2z M225,393.8c0-1.9,0.5-2.8,1.4-2.8s1.4,0.9,1.4,2.8
		s-0.5,2.8-1.4,2.8S225,395.6,225,393.8z M244.4,399.6c0.2-0.7-1-1.8-2.7-2.5c-2.6-1.1-2.8-1.4-1-1.4c2.3,0,4.1-3,2.2-3.6
		c-0.9-0.3-0.7-0.8,0.4-2.1c2.2-2.4,1-3.7-3.3-3.7c-4.3,0-5.6,1.7-5.6,7.5c0,6,1.3,7.7,5.8,7.3C242.3,400.9,244.2,400.2,244.4,399.6
		L244.4,399.6z M256.1,399.7c2.4-2.2,2.1-4.5-0.8-6.8c-1.9-1.5-2.1-1.9-0.9-1.9c1.1,0,1.5-0.6,1.3-2.1c-0.5-3.2-5.8-3.5-7.8-0.4
		c-1.8,2.8-1.1,5,2.2,6.7l2.5,1.3l-4.4,0.1C246.1,401.6,253.1,402.4,256.1,399.7L256.1,399.7z M265.8,393.8c0-6.9-0.1-7-2.3-7
		c-2.3,0-2.3,0.2-2.4,6.6c-0.1,7.7,0.1,8.2,2.7,7.8C265.6,400.8,265.8,400.2,265.8,393.8z M280.1,399.8c2.4-1.7,2.7-5.3,0.7-7
		c-2-1.6-4.6-0.4-4,1.9c0.4,1.4,0,1.9-1.3,1.9c-1.4,0-1.8-0.7-1.8-2.8c0-2.6,0.3-2.8,3.3-2.8c2.6,0,3.3-0.4,3.3-1.8
		c0-1.9-1.7-2.9-4.8-2.9c-2.9,0-6.4,4.2-6.4,7.5c0,3.5,3.6,7.5,6.8,7.5C277,401.3,278.9,400.6,280.1,399.8L280.1,399.8z
		 M288.7,397.6l0-2.5l2.9,3.1c1.6,1.7,3.4,2.9,4,2.7c0.6-0.2,1.2-3.1,1.4-7.1c0.3-6.2,0.1-6.7-1.6-6.7c-1.4,0-1.9,0.6-1.9,2.3
		c0,3-0.4,3-3.7-0.7c-2.3-2.6-2.9-2.8-4.2-1.8c-1.8,1.5-2.1,11.3-0.5,13C286.7,401.7,288.7,400.4,288.7,397.6L288.7,397.6z"/>
	<path id="path3340" class="st1" d="M103.3,206.5L103.6,52h131.7H367l0.2,154.5l0.2,154.5H235.3H103.1L103.3,206.5z M183.4,300.7
		l2.7-6.8l13.2-0.3l13.2-0.3l2.1,5.9c1.2,3.2,2.5,6.4,3.1,7.1c1.4,1.7,17.5,1.6,18.1-0.1c0.6-1.6-27.3-71-28.9-72
		c-0.6-0.4-4.2-0.7-7.9-0.7c-6,0-6.9,0.2-8.2,2.1c-2.4,3.7-28.6,69.5-28.2,70.7c0.3,0.8,3.1,1.2,9.3,1.2h8.8L183.4,300.7
		L183.4,300.7z M193.1,276.1c0-2,6-15.4,6.6-14.8c0.8,0.9,5.6,13.2,5.6,14.5c0,0.5-2.7,0.8-6.1,0.8S193.1,276.3,193.1,276.1
		L193.1,276.1z M255.7,287c0.2-14.4,0.6-19.9,1.3-19.6c0.6,0.2,5.6,7.5,11.2,16.2c5.6,8.7,11.4,17.7,13,19.9l2.8,4h8.4
		c6.8,0,8.5-0.3,8.9-1.5c0.3-0.8,0.6-17,0.6-35.9c0-25.5-0.3-34.7-1.1-35.5c-1.5-1.5-15-1.5-16.5,0c-0.8,0.8-1.1,6.8-1.1,20.8
		c0,16.7-0.2,19.5-1.3,18.3c-0.7-0.8-6.7-9.8-13.3-20.1s-12.4-19.1-13-19.4c-1.3-0.8-13.9-0.9-16-0.1c-1.3,0.5-1.5,4.6-1.5,36.4
		c0,19.7,0.3,36.1,0.7,36.5c0.4,0.4,4.3,0.5,8.7,0.4l8-0.3L255.7,287L255.7,287z M267,186.5c10.4-1.7,16-5.8,20-14.5
		c2-4.5,2.2-6,2.5-30.6c0.2-18,0-26.5-0.7-27.9c-0.9-1.7-1.9-2-8.3-2c-4.4,0-7.7,0.4-8.4,1.1c-0.8,0.8-1.1,7.5-1.1,24.4
		c0,29.8-0.6,31.7-11,31.7c-5.6,0-8.3-1.8-9.6-6.4c-0.5-2-1-13.6-1-26.6c0-20.2-0.2-23.2-1.5-23.7c-0.8-0.3-4.6-0.6-8.4-0.6
		c-6.1,0-7,0.2-8,2c-1.4,2.7-0.6,51.3,0.9,56.3c2.6,8.4,10.7,15,20.3,16.6C259.2,187.6,260.4,187.6,267,186.5L267,186.5z
		 M225.7,179.6c0.5-10.2,1-9.8-12.7-10.1l-11.9-0.3l-0.2-28.1c-0.2-21-0.5-28.3-1.4-28.8c-1.4-0.9-13-1-15.1-0.2
		c-1.3,0.5-1.5,4.6-1.5,36.4c0,19.7,0.3,36.1,0.6,36.5c0.4,0.4,10,0.5,21.3,0.4l20.7-0.3L225.7,179.6L225.7,179.6z"/>
</g>
<path class="st0" d="M104.8,345.6c1.7,0,2.6,0.5,2.6,1.6s-0.9,1.6-2.6,1.6"/>
<path class="st0" d="M104.8,340c0.9,0,1.3,0.3,1.3,1c0,0.7-0.4,1-1.3,1"/>
<rect x="265.6" y="311.1" class="st0" width="1.4" height="56.7"/>
</svg>
